<?xml version="1.0" standalone="no"?>
<!DOCTYPE svg PUBLIC "-//W3C//DTD SVG 20010904//EN"
 "http://www.w3.org/TR/2001/REC-SVG-20010904/DTD/svg10.dtd">
<svg version="1.0" xmlns="http://www.w3.org/2000/svg"
 width="32.000000pt" height="32.000000pt" viewBox="0 0 32.000000 32.000000"
 preserveAspectRatio="xMidYMid meet">
<g transform="translate(0.000000,32.000000) scale(0.100000,-0.100000)"
fill="#000000" stroke="none">
<path d="M0 160 l0 -160 160 0 160 0 0 160 0 160 -160 0 -160 0 0 -160z m225
108 c24 -11 34 -41 16 -52 -4 -3 -17 1 -27 9 -43 32 -95 3 -109 -62 -5 -27 -2
-37 19 -58 29 -29 62 -32 94 -9 25 17 42 11 42 -15 0 -27 -51 -45 -107 -38
-70 8 -97 42 -91 115 4 48 10 60 41 89 39 35 76 42 122 21z"/>
</g>
</svg>
