<?xml version="1.0" standalone="no"?><!DOCTYPE svg PUBLIC "-//W3C//DTD SVG 1.1//EN" "http://www.w3.org/Graphics/SVG/1.1/DTD/svg11.dtd"><svg t="1681715884466" class="icon" viewBox="0 0 1024 1024" version="1.1" xmlns="http://www.w3.org/2000/svg" p-id="2640" xmlns:xlink="http://www.w3.org/1999/xlink" width="200" height="200"><path d="M895.6 790.2c-3 0-6-0.4-8.8-1.4-2.8-1-5.4-2.4-7.8-4.2-1.4-1.8-2.8-3.4-4.6-4.6-0.6-0.8-1.2-1.6-1.6-2.4-0.6-0.8-1-1.8-1.4-2.6-0.4-1-0.8-1.8-1-2.8-0.4-1-0.6-1.8-0.8-2.8-0.2-1-0.4-2-0.4-3s-0.2-2-0.2-3 0-2 0.2-3l0.6-3c0.2-1 0.6-2 0.8-2.8s0.8-1.8 1.2-2.8 1-1.8 1.4-2.6l1.8-2.4c0.6-0.8 1.2-1.4 2-2.2 0.8-0.6 1.4-1.4 2.2-2 0.8-0.6 1.6-1.2 2.4-1.6 0.8-0.6 1.8-1 2.6-1.4 0.8-0.4 1.8-0.8 2.8-1.2 1-0.4 1.8-0.6 2.8-0.8s2-0.4 3-0.4c1-0.2 2-0.2 3-0.2s2 0 3 0.2 2 0.2 3 0.6 2 0.6 2.8 0.8c1 0.4 1.8 0.8 2.8 1.2 0.8 0.4 1.8 1 2.6 1.4l2.4 1.8c0.8 0.6 1.6 1.2 2.2 2 0.6 0.8 1.4 1.4 2 2.2l1.8 2.4c0.6 0.8 1 1.8 1.4 2.6 0.4 0.8 0.8 1.8 1.2 2.8 0.4 1 0.6 1.8 0.8 2.8 0.2 1 0.4 2 0.4 3s0.2 2 0.2 3 0 2-0.2 3-0.2 2-0.6 3-0.6 2-0.8 2.8c-0.4 1-0.8 1.8-1.2 2.8-0.4 0.8-1 1.8-1.4 2.6l-1.8 2.4c-0.6 0.8-1.2 1.6-2 2.2-0.8 0.6-1.4 1.4-2.2 2l-2.4 1.8c-0.8 0.6-1.8 1-2.6 1.4-0.8 0.4-1.8 0.8-2.8 1.2s-1.8 0.6-2.8 0.8c-1 0.2-2 0.4-3 0.4h-3z m0-94.2c-1.4 0-2.8 0-4.2 0.2-1.4 0-2.8 0.2-4.2 0.4l-4.2 0.6c-1.4 0.2-2.8 0.6-4 0.8-1.4 0.4-2.6 0.8-4 1.2-1.4 0.4-2.6 0.8-4 1.4-1.2 0.4-2.6 1-3.8 1.6-1.2 0.6-2.6 1.2-3.8 1.8-1.2 0.6-2.4 1.4-3.6 2-1.2 0.8-2.4 1.4-3.4 2.2-1.2 0.8-2.2 1.6-3.4 2.4-1 0.8-2.2 1.8-3.2 2.6-1 1-2 1.8-3 2.8-1 1-2 2-2.8 3-1 1-1.8 2.2-2.6 3.2-0.8 1.2-1.6 2.2-2.4 3.4-0.8 1.2-1.6 2.4-2.2 3.6-0.8 1.2-1.4 2.4-2 3.6-0.6 1.2-1.2 2.4-1.8 3.8-0.6 1.2-1 2.6-1.6 3.8-0.4 1.4-1 2.6-1.2 4-0.4 1.4-0.8 2.6-1 4-0.4 1.4-0.6 2.8-0.8 4l-0.6 4.2c-0.2 1.4-0.2 2.8-0.2 4.2v4.2c0 1.4 0 2.8 0.2 4.2 0.2 1.4 0.2 2.8 0.4 4.2 0.2 1.4 0.4 2.8 0.8 4 0.2 1.4 0.6 2.8 1 4 0.4 1.4 0.8 2.6 1.2 4 0.4 1.4 1 2.6 1.4 3.8-88.2 41.2-252.8 10.2-404.8-77.2-69.4-39.8-131.2-88.2-178.4-140-1-1-2-2-3-2.8-1-0.8-2.2-1.4-3.4-2s-2.6-1-3.8-1.4c-1.4-0.4-2.6-0.6-4-0.6s-2.8 0-4 0.2c-1.4 0.2-2.6 0.6-4 1-1.2 0.4-2.6 1-3.6 1.8-1.2 0.6-2.2 1.6-3.2 2.4-1 1-2 2-2.8 3-0.8 1-1.6 2.2-2 3.4-0.6 1.2-1 2.6-1.4 3.8-0.4 1.4-0.6 2.6-0.6 4s0 2.8 0.2 4c0.2 1.4 0.6 2.6 1 4s1 2.6 1.8 3.6c0.8 1.2 1.6 2.2 2.4 3.2 50.2 54.8 115.4 106 188.4 148 85 48.8 173.6 81.4 256.2 94.6 24.4 4 49 6 73.8 6.2 48.8 0 90.8-9 123.4-27 1.2 0.6 2.2 1.4 3.4 2l3.6 1.8c1.2 0.6 2.4 1 3.6 1.6 1.2 0.4 2.4 1 3.6 1.4 1.2 0.4 2.4 0.8 3.8 1.2 1.2 0.4 2.6 0.6 3.8 0.8 1.2 0.2 2.6 0.4 3.8 0.6 1.2 0.2 2.6 0.4 3.8 0.4 1.4 0.2 2.6 0.2 4 0.2h4c1.4 0 2.6-0.2 4-0.2 1.4-0.2 2.6-0.2 3.8-0.4 1.2-0.2 2.6-0.4 3.8-0.6 1.2-0.2 2.6-0.6 3.8-0.8 1.2-0.4 2.6-0.8 3.8-1.2 1.2-0.4 2.4-0.8 3.6-1.4 1.2-0.4 2.4-1 3.6-1.6l3.6-1.8c1.2-0.6 2.2-1.2 3.4-2 1.2-0.6 2.2-1.4 3.2-2.2 1-0.8 2.2-1.6 3.2-2.4 1-0.8 2-1.6 3-2.6 1-0.8 2-1.8 2.8-2.6l2.8-2.8c1-1 1.8-2 2.6-3s1.6-2 2.4-3.2c0.8-1 1.4-2.2 2.2-3.2 0.6-1.2 1.4-2.2 2-3.4 0.6-1.2 1.2-2.4 1.8-3.4 0.6-1.2 1-2.4 1.6-3.6 0.4-1.2 1-2.4 1.4-3.6 0.4-1.2 0.8-2.4 1.2-3.8s0.6-2.6 1-3.8c0.2-1.2 0.6-2.6 0.8-3.8 0.2-1.2 0.4-2.6 0.6-3.8 0.2-1.4 0.2-2.6 0.2-4v-4c0-1.4 0-2.6-0.2-4 0-1.4-0.2-2.6-0.4-3.8-0.2-1.2-0.4-2.6-0.6-3.8-0.2-1.2-0.6-2.6-0.8-3.8-0.4-1.2-0.6-2.6-1-3.8-0.4-1.2-0.8-2.4-1.2-3.8-0.4-1.2-1-2.4-1.4-3.6-0.6-1.2-1-2.4-1.6-3.6-0.6-1.2-1.2-2.4-1.8-3.4-0.6-1.2-1.4-2.2-2-3.4s-1.4-2.2-2.2-3.2l-2.4-3c-0.8-1-1.8-2-2.6-3l-2.8-2.8c-1-0.8-2-1.8-3-2.6l-3-2.4c-1-0.8-2.2-1.6-3.2-2.2-1-0.8-2.2-1.4-3.4-2-1.2-0.6-2.2-1.2-3.4-1.8-1.2-0.6-2.4-1.2-3.6-1.6-1.2-0.6-2.4-1-3.6-1.4-1.2-0.4-2.4-0.8-3.8-1.2-1.2-0.4-2.6-0.8-3.8-1-1.2-0.2-2.6-0.6-3.8-0.8-1.2-0.2-2.6-0.4-3.8-0.6-1.2-0.2-2.6-0.2-4-0.4-2.6 0.8-4 0.8-5.4 0.8z m-222 161l-3.6-1.8c-1.2-0.4-2.6-0.8-4-1-1.4-0.2-2.6-0.2-4-0.2s-2.6 0.2-4 0.6c-1.4 0.4-2.6 0.8-3.8 1.4-1.2 0.6-2.4 1.2-3.4 2s-2.2 1.8-3 2.8c-1 1-1.8 2-2.4 3.2-34.6 57.2-77.2 88.8-119.8 88.8-60 0-118.2-61.8-155.6-165.4-0.4-1.2-1-2.6-1.8-3.6-0.8-1.2-1.6-2.2-2.4-3.2s-2-2-3-2.8c-1-0.8-2.2-1.6-3.4-2-1.2-0.6-2.6-1-3.8-1.4-1.4-0.4-2.6-0.6-4-0.6s-2.8 0-4 0.2c-1.4 0.2-2.6 0.6-4 1-1.2 0.4-2.6 1-3.6 1.8-1.2 0.6-2.2 1.6-3.2 2.4-1 1-2 2-2.8 3-0.8 1-1.6 2.2-2.2 3.4-0.6 1.2-1 2.6-1.4 3.8-0.4 1.4-0.6 2.6-0.6 4s0 2.8 0.2 4c0.2 1.4 0.6 2.6 1 4 21 58.6 49.6 107 82.2 140.2 34 34.4 72.8 52.8 112.4 52.8 57.8 0 113-38.6 155.4-108.8 0.8-1.2 1.2-2.4 1.8-3.6 0.4-1.2 0.8-2.6 1-4 0.2-1.4 0.2-2.8 0.2-4 0-1.4-0.2-2.8-0.6-4-0.4-1.4-0.8-2.6-1.4-3.8-0.6-1.2-1.2-2.4-2-3.4s-1.8-2-2.8-3c-1.2-1.2-2.4-2-3.6-2.8z m74.2-572c68 0.8 111 19.6 132.4 56.6 30 51.6 5.4 132.4-66 216.2-1.2 1.6-2.4 3.2-3.2 5-0.8 1.8-1.4 3.6-1.6 5.6-0.2 2-0.2 4 0 5.8 0.2 2 0.8 3.8 1.6 5.6 0.8 1.8 2 3.4 3.2 5 1.4 1.4 2.8 2.8 4.4 3.8 1.6 1 3.4 1.8 5.4 2.4 2 0.6 3.8 0.8 5.8 0.8 3 0 6-0.6 8.8-2 2.8-1.2 5.2-3 7.2-5.4 40.4-47.4 68.2-96 80.6-140.8 13-46.4 9.4-89-10.6-123.2-29.2-50.2-84.6-76.2-167.8-77.4-1.4 0-2.8 0.2-4 0.4-1.4 0.2-2.6 0.6-3.8 1.2l-3.6 1.8c-1.2 0.6-2.2 1.6-3.2 2.6s-1.8 2-2.6 3.2c-0.8 1.2-1.4 2.4-2 3.6-0.6 1.2-1 2.6-1.2 3.8s-0.4 2.6-0.4 4 0.2 2.8 0.4 4 0.6 2.6 1.2 3.8l1.8 3.6c0.8 1.2 1.6 2.2 2.6 3.2s2 1.8 3.2 2.6c1.2 0.8 2.4 1.4 3.6 2 1.2 0.6 2.6 1 3.8 1.2 1.2 0.8 2.6 1 4 1zM168 519.8c3.6 0 7-1 10.2-2.8 1.2-0.6 2.2-1.4 3.4-2.4 1-0.8 2-1.8 2.8-3 0.8-1 1.6-2.2 2.2-3.4 0.6-1.2 1-2.4 1.4-3.8 0.4-1.4 0.6-2.6 0.6-4s0-2.8-0.2-4c-0.2-1.4-0.4-2.6-1-4-0.4-1.2-1-2.6-1.6-3.8-34.8-60.2-37.6-110-15.8-147.6 30-51.8 113-71 222-51.2 1.4 0.2 2.6 0.4 4 0.4s2.8-0.2 4-0.4 2.6-0.8 3.8-1.2 2.4-1.2 3.6-2c1.2-0.8 2.2-1.6 3.2-2.6s1.8-2 2.6-3.2c0.8-1.2 1.4-2.4 1.8-3.6 0.6-1.2 0.8-2.6 1.2-4 0.2-1.4 0.4-2.6 0.4-4s-0.2-2.8-0.4-4-0.8-2.6-1.2-3.8c-0.6-1.2-1.2-2.4-2-3.6-0.8-1.2-1.6-2.2-2.6-3.2s-2-1.8-3.2-2.6c-1.2-0.8-2.4-1.4-3.6-1.8-1.2-0.4-2.6-0.8-4-1.2-61.6-11.2-118.2-11-163.2 0.6-47 12-82.2 36.4-102.2 70.6-29.6 51-26.8 115.4 15.6 189 1 1.6 2 3 3.4 4.4 1.2 1.2 2.8 2.4 4.4 3.4 1.6 1 3.2 1.6 5 2 1.8 0.6 3.6 0.8 5.4 0.8z" p-id="2641"></path><path d="M154.4 790.2c-1.8 0-3.4-0.2-5.2-0.6-1.6-0.4-3.4-0.8-5-1.6-1.6-0.6-3.2-1.4-4.6-2.4-1.4-1-2.8-2-4-3.2-1.2-1.2-2.2-2.6-3.2-4s-1.8-3-2.4-4.6c-0.6-1.6-1.2-3.2-1.4-5-0.4-1.6-0.4-3.4-0.4-5.2 0-1.8 0.2-3.4 0.6-5.2 0.4-1.6 0.8-3.4 1.6-5 0.6-1.6 1.4-3.2 2.4-4.6 1-1.4 2-2.8 3.2-4 1.2-1.2 2.6-2.4 4-3.2s3-1.8 4.6-2.4 3.2-1.2 5-1.4c1.6-0.4 3.4-0.4 5.2-0.4 1.8 0 3.4 0.2 5.2 0.6 1.6 0.4 3.4 0.8 5 1.6 1.6 0.6 3.2 1.4 4.6 2.4 1.4 1 2.8 2 4 3.2 1.2 1.2 2.4 2.6 3.2 4 1 1.4 1.8 3 2.4 4.6 0.6 1.6 1.2 3.2 1.4 5 0.4 1.6 0.6 3.4 0.6 5.2 0 1.8-0.2 3.4-0.6 5.2-0.4 1.8-0.8 3.4-1.6 5-0.6 1.6-1.4 3.2-2.4 4.6-1 1.4-2 2.8-3.4 4s-2.6 2.4-4 3.2c-1.4 1-3 1.8-4.6 2.4-1.6 0.6-3.2 1.2-5 1.4-1.8 0.2-3.4 0.4-5.2 0.4z m3.8-94.2c1.2-44.8 26.2-99.2 71-154.4 49-60 119.6-118.2 199-163.8 70.2-40.2 137.6-67.2 206.8-82 1.4-0.2 2.6-0.6 4-1.2 1.2-0.6 2.4-1.2 3.6-2 1.2-0.8 2.2-1.6 3.2-2.6s1.8-2 2.6-3.2c0.8-1.2 1.4-2.4 2-3.6 0.6-1.2 1-2.6 1.2-4 0.2-1.4 0.4-2.8 0.4-4 0-1.4-0.2-2.8-0.4-4-0.2-1.4-0.8-2.6-1.2-4s-1.2-2.4-2-3.6c-0.8-1.2-1.6-2.2-2.6-3.2s-2-1.8-3.2-2.6c-1.2-0.8-2.4-1.4-3.6-1.8-1.2-0.4-2.6-0.8-4-1-1.4-0.2-2.8-0.4-4.2-0.2-1.4 0-2.8 0.2-4 0.6-73.6 15.6-145 44.2-219 86.6C230 444 111.4 593.4 116.8 707.2c-1.2 0.8-2.2 1.6-3.2 2.4-1 0.8-2.2 1.6-3.2 2.4-1 0.8-2 1.8-3 2.6-1 1-2 1.8-2.8 2.8-1 1-1.8 2-2.6 3s-1.6 2-2.4 3.2-1.6 2.2-2.2 3.2c-0.8 1.2-1.4 2.2-2 3.4l-1.8 3.6c-0.6 1.2-1.2 2.4-1.6 3.6-0.6 1.2-1 2.4-1.4 3.8-0.4 1.2-0.8 2.6-1.2 3.8-0.4 1.2-0.8 2.6-1 3.8s-0.6 2.6-0.8 4c-0.2 1.4-0.4 2.6-0.6 4-0.2 1.4-0.2 2.6-0.4 4s0 2.6 0 4 0 2.6 0.2 4c0 1.4 0.2 2.6 0.4 4s0.4 2.6 0.6 4c0.2 1.4 0.6 2.6 0.8 4 0.4 1.2 0.6 2.6 1 3.8 0.4 1.2 0.8 2.6 1.4 3.8 0.4 1.2 1 2.4 1.6 3.6l1.8 3.6c0.6 1.2 1.2 2.4 2 3.4 0.6 1.2 1.4 2.2 2.2 3.4 0.8 1.2 1.6 2.2 2.4 3.2 0.8 1 1.6 2 2.6 3 0.8 1 1.8 2 2.8 3 1 1 2 1.8 2.8 2.8 1 0.8 2 1.8 3 2.6s2.2 1.6 3.2 2.4 2.2 1.6 3.4 2.2c1.2 0.8 2.2 1.4 3.4 2l3.6 1.8c1.2 0.6 2.4 1.2 3.6 1.6 1.2 0.4 2.4 1 3.8 1.4 1.2 0.4 2.6 0.8 3.8 1.2 1.2 0.4 2.6 0.6 3.8 1 1.4 0.2 2.6 0.6 4 0.8s2.6 0.4 4 0.4c1.4 0.2 2.6 0.2 4 0.2h4c1.4 0 2.6-0.2 4-0.2 1.4-0.2 2.6-0.2 4-0.4s2.6-0.4 4-0.8c1.4-0.2 2.6-0.6 3.8-1 1.2-0.4 2.6-0.8 3.8-1.2 1.2-0.4 2.6-0.8 3.8-1.4 1.2-0.4 2.4-1 3.6-1.6l3.6-1.8c1.2-0.6 2.4-1.4 3.4-2 1.2-0.8 2.2-1.4 3.4-2.2 1-0.8 2.2-1.6 3.2-2.4s2-1.8 3-2.6 2-1.8 2.8-2.8c1-1 1.8-2 2.8-3s1.8-2 2.6-3 1.6-2.2 2.4-3.2c0.8-1.2 1.4-2.2 2.2-3.4 0.6-1.2 1.4-2.4 2-3.4s1.2-2.4 1.8-3.6c0.6-1.2 1-2.4 1.6-3.6 0.4-1.2 1-2.6 1.4-3.8 0.4-1.2 0.8-2.6 1-3.8 0.4-1.2 0.6-2.6 0.8-4 0.2-1.4 0.4-2.6 0.6-4 0.2-1.4 0.4-2.6 0.4-4s0.2-2.6 0.2-4v-4c0-1.4-0.2-2.6-0.2-4s-0.4-2.6-0.6-4c-0.2-1.4-0.4-2.6-0.8-4-0.2-1.4-0.6-2.6-1-3.8-0.4-1.2-0.8-2.6-1.2-3.8-0.4-1.2-1-2.6-1.4-3.8-0.6-1.2-1-2.4-1.6-3.6l-1.8-3.6c-0.6-1.2-1.4-2.4-2-3.4-0.8-1.2-1.4-2.2-2.2-3.2-0.8-1-1.6-2.2-2.4-3.2-0.8-1-1.8-2-2.6-3-1-1-1.8-2-2.8-2.8-1-1-2-1.8-3-2.6s-2-1.6-3.2-2.4c-1-0.8-2.2-1.6-3.2-2.4-1.2-0.8-2.2-1.4-3.4-2.2-1.2-0.6-2.4-1.4-3.6-2s-2.4-1.2-3.6-1.6c-1.2-0.6-2.4-1-3.8-1.4-1.2-0.4-2.6-0.8-3.8-1.2-1.2-0.4-2.6-0.8-3.8-1-1.4-0.4-2.6-0.6-4-0.8-1.4-0.2-2.6-0.4-4-0.6-2.2-0.2-3.4-0.2-4.8-0.4z" p-id="2642"></path><path d="M514.4 495.2c-1.6 0.4-3 0.8-4.6 1.2-1.4 0.4-3 1-4.4 1.6-1.4 0.6-2.8 1.2-4.2 2s-2.8 1.6-4 2.4c-1.4 0.8-2.6 1.8-3.8 2.8l-3.6 3c-1.2 1-2.2 2.2-3.2 3.4l-3 3.6c-1 1.2-1.8 2.6-2.6 4s-1.6 2.8-2.2 4.2c-0.6 1.4-1.2 2.8-1.8 4.4-0.6 1.4-1 3-1.4 4.4-0.4 1.6-0.8 3-1 4.6-0.2 1.6-0.4 3.2-0.6 4.6-0.2 1.6-0.2 3.2-0.2 4.8 0 1.6 0.2 3.2 0.2 4.6 0.2 1.6 0.4 3.2 0.8 4.6 0.4 1.6 0.6 3 1.2 4.6 0.4 1.6 1 3 1.6 4.4 0.6 1.4 1.2 2.8 2 4.2 0.8 1.4 1.4 2.8 2.4 4 0.8 1.4 1.8 2.6 2.6 3.8l3 3.6c1 1.2 2.2 2.2 3.4 3.2l3.6 3c1.2 1 2.6 1.8 4 2.6s2.8 1.6 4.2 2.2c1.4 0.6 2.8 1.4 4.4 1.8 1.4 0.6 3 1 4.4 1.4 1.6 0.4 3 0.8 4.6 1 1.6 0.2 3 0.4 4.6 0.6 1.6 0.2 3.2 0.2 4.8 0.2 3.6 0 7.2-0.4 10.8-1.2 1.6-0.4 3.4-0.8 5-1.2 1.6-0.6 3.2-1 4.8-1.8 1.6-0.6 3-1.4 4.6-2.2 1.4-0.8 3-1.6 4.4-2.6 1.4-1 2.8-2 4-3 1.4-1 2.6-2.2 3.8-3.4 1.2-1.2 2.4-2.4 3.4-3.8s2-2.6 3-4.2c1-1.4 1.8-2.8 2.6-4.4 0.8-1.6 1.4-3 2.2-4.6 0.6-1.6 1.2-3.2 1.6-4.8 0.4-1.6 0.8-3.2 1.2-5 0.4-1.6 0.6-3.4 0.6-5 0.2-1.6 0.2-3.4 0.2-5s-0.2-3.4-0.4-5-0.4-3.4-0.8-5-0.8-3.2-1.4-5l-1.8-4.8c-0.6-1.6-1.4-3-2.2-4.6-0.8-1.4-1.8-3-2.8-4.4-1-1.4-2-2.8-3.2-4-1.2-1.2-2.2-2.6-3.4-3.6-1.2-1.2-2.6-2.2-3.8-3.4l-4.2-3c-1.4-1-3-1.8-4.4-2.6s-3-1.4-4.6-2-3.2-1.2-4.8-1.6c-1.6-0.4-3.2-0.8-5-1.2s-3.4-0.4-5-0.6-3.4-0.2-5-0.2-3.4 0.2-5 0.4c-2.2 1.4-3.8 1.6-5.6 2z m11-404.4c1.8 0 3.4 0.2 5.2 0.6 1.6 0.4 3.4 0.8 5 1.6 1.6 0.6 3.2 1.4 4.6 2.4 1.4 1 2.8 2 4 3.2 1.2 1.2 2.2 2.6 3.2 4s1.8 3 2.4 4.6c0.6 1.6 1.2 3.2 1.4 5 0.4 1.6 0.4 3.4 0.4 5.2 0 1.8-0.2 3.4-0.6 5.2-0.4 1.6-0.8 3.4-1.6 5-0.6 1.6-1.4 3.2-2.4 4.6-1 1.4-2 2.8-3.2 4-1.2 1.2-2.6 2.4-4 3.2-1.4 1-3 1.8-4.6 2.4-1.6 0.6-3.2 1.2-5 1.4s-3.4 0.4-5.2 0.4c-1.8 0-3.4-0.2-5.2-0.6-1.6-0.4-3.4-0.8-5-1.6-1.6-0.6-3.2-1.4-4.6-2.4-1.4-1-2.8-2-4-3.2-1.2-1.2-2.4-2.6-3.2-4-1-1.4-1.8-3-2.4-4.6-0.6-1.6-1.2-3.2-1.4-5-0.4-1.6-0.6-3.4-0.6-5.2 0-1.8 0.2-3.4 0.6-5.2 0.4-1.8 0.8-3.4 1.6-5 0.6-1.6 1.4-3.2 2.4-4.6 1-1.4 2-2.8 3.4-4 1.2-1.2 2.6-2.4 4-3.2 1.4-1 3-1.8 4.6-2.4 1.6-0.6 3.2-1.2 5-1.4 1.8-0.2 3.6-0.4 5.2-0.4z m0 94.2c2.8 0 5.4-0.2 8.2-0.4 2.8-0.4 5.4-0.8 8-1.4 2.6-0.6 5.2-1.4 7.8-2.4 2.6-1 5-2 7.4-3.4 2.4-1.2 4.8-2.6 7-4.2s4.4-3.2 6.4-5 4-3.8 5.8-5.8c1.8-2 3.6-4.2 5-6.4 37.8 24.6 71.8 73.8 96.6 139.4 27.4 72.6 41.8 159 41.8 250 0 78.4-11 152.6-31.6 218.6-0.8 2.6-1.2 5.2-0.8 8 0.2 2.8 1 5.4 2.2 7.8 1.2 2.4 3 4.6 5 6.4 2.2 1.8 4.4 3 7.2 3.8 1.4 0.4 2.6 0.6 4 0.8 1.4 0.2 2.8 0.2 4 0 1.4-0.2 2.6-0.4 4-0.8s2.6-0.8 3.8-1.6c1.2-0.6 2.4-1.4 3.4-2.2 1-0.8 2-1.8 3-2.8s1.6-2.2 2.4-3.4 1.2-2.4 1.6-3.8c22-70 33.6-148.4 33.6-231 0-99.4-16.4-193.6-47.4-272.2-30.4-77-72-131.6-120.6-158.6 0-2.2-0.2-4.4-0.6-6.6-0.2-2.2-0.6-4.4-1.2-6.6-0.4-2.2-1-4.2-1.8-6.4s-1.6-4.2-2.4-6.2l-3-6c-1-2-2.2-3.8-3.6-5.6-1.2-1.8-2.6-3.6-4-5.2s-3-3.2-4.6-4.8c-1.6-1.6-3.2-3-5-4.4-1.8-1.4-3.6-2.6-5.4-3.8-1.8-1.2-3.8-2.2-5.8-3.2s-4-1.8-6-2.6-4.2-1.4-6.4-2c-2.2-0.6-4.2-1-6.4-1.4-2.2-0.4-4.4-0.6-6.6-0.8-2.2-0.2-4.4-0.2-6.6-0.2-2.2 0-4.4 0.2-6.6 0.4-2.2 0.2-4.4 0.6-6.6 1.2-2.2 0.4-4.4 1-6.4 1.8-2.2 0.6-4.2 1.4-6.2 2.4-2 0.8-4 1.8-6 3-2 1-3.8 2.2-5.6 3.6-1.8 1.2-3.6 2.6-5.2 4s-3.4 3-4.8 4.6c-1.6 1.6-3 3.2-4.4 5-1.4 1.8-2.6 3.6-3.8 5.4-1.2 1.8-2.4 3.8-3.4 5.8s-2 4-2.8 6c-0.8 2-1.6 4.2-2.2 6.2-0.6 2.2-1.2 4.2-1.6 6.4-0.4 2.2-0.8 4.4-1 6.6s-0.2 4.4-0.2 6.6 0.2 4.4 0.4 6.6c0.2 2.2 0.6 4.4 1 6.6 0.4 2.2 1 4.4 1.6 6.4 0.6 2.2 1.4 4.2 2.2 6.2 0.8 2 1.8 4 2.8 6 1 2 2.2 3.8 3.4 5.6s2.6 3.6 4 5.4c1.4 1.8 3 3.4 4.4 4.8 1.6 1.6 3.2 3 5 4.4 1.8 1.4 3.6 2.8 5.4 4 1.8 1.2 3.8 2.4 5.8 3.4s4 2 6 2.8 4.2 1.6 6.2 2.2c2.2 0.6 4.2 1.2 6.4 1.6 2.2 0.4 4.4 0.8 6.6 1 2.8 0.4 5 0.4 7.2 0.4z" p-id="2643"></path></svg>