<svg t="1679044228374" class="icon" viewBox="0 0 1024 1024" version="1.1" xmlns="http://www.w3.org/2000/svg" p-id="3669" width="200" height="200"><path d="M795.749506 128.198777l0 212.610282-260.09783-54.281277L535.651676 842.910619c0 31.662117-18.0941 59.183937-54.281277 82.556251-36.187177 23.411199-79.158874 35.049261-128.915092 35.049261-37.693484 0-68.988234-10.923794-93.865831-32.790824-24.877597-21.818935-37.316907-50.083675-37.316907-84.814688 0-30.156834 12.43931-56.163137 37.316907-78.030168 24.877597-21.818935 56.17337-35.05847 93.865831-39.584554l65.591881 0c16.588817 0 31.28554-6.783497 44.100404-20.351514 12.814864-13.568017 19.222807-28.602432 19.222807-45.230134L481.370399 64.875566 795.749506 128.198777z" fill="currentColor" p-id="3670"></path></svg>